<?xml version="1.0" encoding="UTF-8"?>
<svg width="300" height="300" xmlns="http://www.w3.org/2000/svg" viewBox="0 0 300 300">

  <!-- Definiera gradienter -->
  <defs>
    <!-- Lila gradient -->
    <linearGradient id="purpleGradient" x1="0%" y1="0%" x2="100%" y2="100%">
      <stop offset="0%" style="stop-color: lavender; stop-opacity: 1" />
      <stop offset="100%" style="stop-color: darkviolet; stop-opacity: 0.9" />
    </linearGradient>

    <!-- Rosa gradient -->
    <linearGradient id="pinkGradient" x1="0%" y1="0%" x2="100%" y2="100%">
      <stop offset="0%" style="stop-color: lightpink; stop-opacity: 1" />
      <stop offset="100%" style="stop-color: deeppink; stop-opacity: 0.9" />
    </linearGradient>

    <!-- Peach gradient -->
    <linearGradient id="peachGradient" x1="0%" y1="0%" x2="100%" y2="100%">
      <stop offset="0%" style="stop-color: peachpuff; stop-opacity: 1" />
      <stop offset="100%" style="stop-color: darkorange; stop-opacity: 0.9" />
    </linearGradient>

     <!-- Gul gradient för mitten -->
    <radialGradient id="centerGradient" cx="50%" cy="50%" r="50%" fx="50%" fy="50%">
      <stop offset="0%" style="stop-color: #FFEB3B; stop-opacity: 1" />
      <stop offset="100%" style="stop-color: gold; stop-opacity: 1" />
    </radialGradient>
  </defs>

  <!-- Kronblad med gradienter -->
  <ellipse cx="150" cy="60" rx="30" ry="60" fill="url(#purpleGradient)" transform="rotate(0 150 150)" />
  <ellipse cx="150" cy="60" rx="30" ry="60" fill="url(#pinkGradient)" transform="rotate(30 150 150)" />
  <ellipse cx="150" cy="60" rx="30" ry="60" fill="url(#peachGradient)" transform="rotate(60 150 150)" />
  <ellipse cx="150" cy="60" rx="30" ry="60" fill="url(#purpleGradient)" transform="rotate(90 150 150)" />
  <ellipse cx="150" cy="60" rx="30" ry="60" fill="url(#pinkGradient)" transform="rotate(120 150 150)" />
  <ellipse cx="150" cy="60" rx="30" ry="60" fill="url(#peachGradient)" transform="rotate(150 150 150)" />
  <ellipse cx="150" cy="60" rx="30" ry="60" fill="url(#purpleGradient)" transform="rotate(180 150 150)" />
  <ellipse cx="150" cy="60" rx="30" ry="60" fill="url(#pinkGradient)" transform="rotate(210 150 150)" />
  <ellipse cx="150" cy="60" rx="30" ry="60" fill="url(#peachGradient)" transform="rotate(240 150 150)" />
  <ellipse cx="150" cy="60" rx="30" ry="60" fill="url(#purpleGradient)" transform="rotate(270 150 150)" />
  <ellipse cx="150" cy="60" rx="30" ry="60" fill="url(#pinkGradient)" transform="rotate(300 150 150)" />
  <ellipse cx="150" cy="60" rx="30" ry="60" fill="url(#peachGradient)" transform="rotate(330 150 150)" />

  <!-- Blommans mittpunkt -->
  <circle cx="150" cy="150" r="70" fill="url(#centerGradient)" />

  <!-- Smiley Face -->
  <!-- Ögon -->
  <circle cx="120" cy="130" r="10" fill="black" />
  <circle cx="180" cy="130" r="10" fill="black" />

  <!-- Mun -->
  <path d="M120,170 Q150,200 180,170" stroke="black" stroke-width="5" fill="none" />
</svg>
